<svg width="95" height="26" viewBox="0 0 95 26" fill="none" xmlns="http://www.w3.org/2000/svg">
<g clip-path="url(#clip0_39_85)">
<path fill-rule="evenodd" clip-rule="evenodd" d="M94.9843 21.1262C94.9585 20.8458 94.8806 20.5142 94.7507 20.1315C94.543 19.7482 94.3619 19.4678 94.18 19.2635C94.1021 19.1874 93.9985 19.085 93.8165 18.9319C93.6871 18.7276 93.6092 18.6003 93.5314 18.5238L92.5972 17.4774C92.4415 17.2989 92.1821 17.0185 91.8444 16.6357L91.6372 16.4314C91.5593 16.3041 91.4815 16.2017 91.4557 16.1764C91.4294 16.0998 91.3257 15.9979 91.1958 15.8443L90.8844 15.5381C90.8586 15.5127 90.7808 15.4108 90.6771 15.283C90.5472 15.1553 90.4436 15.0534 90.3915 14.9768C90.21 14.7472 90.0543 14.5687 89.8728 14.3902L89.7171 14.2371C89.6393 14.1347 89.5872 14.0586 89.5614 14.0328C89.4578 13.9309 89.3799 13.8285 89.3279 13.7524L88.9644 13.395C88.9386 13.3184 88.8608 13.2418 88.7571 13.1399C88.6272 13.0122 88.5236 12.9103 88.4973 12.8337C88.4195 12.7571 88.4195 12.6294 88.4973 12.5021L88.8608 12.1447C88.9902 12.0169 89.1201 11.915 89.2238 11.8385L90.2879 10.7925C90.3657 10.7667 90.4436 10.6901 90.573 10.5628C90.6771 10.4351 90.755 10.3332 90.8328 10.3073L91.4557 9.69489L91.7928 9.36329C91.8707 9.33792 91.9743 9.23599 92.1042 9.10825L92.3636 8.85321C92.4415 8.77666 92.5193 8.67429 92.6492 8.4958L93.1163 8.06184C93.2458 7.93454 93.4277 7.73024 93.635 7.44983C93.8165 7.16897 93.9722 6.86275 94.0763 6.55652C94.1542 6.4546 94.2058 6.27612 94.2836 6.02063C94.3099 5.61248 94.3099 5.17851 94.2836 4.71962C94.18 4.13254 93.9722 3.59665 93.635 3.13731C93.5314 3.03538 93.3757 2.8569 93.1679 2.57605L92.4156 1.98941C92.0264 1.81093 91.6892 1.70856 91.4036 1.632C91.2216 1.55545 90.9623 1.53007 90.573 1.53007C90.4436 1.53007 90.1842 1.55545 89.7692 1.632C89.5872 1.70856 89.4057 1.78512 89.2238 1.88704C88.9902 1.98941 88.7309 2.11715 88.4973 2.26982C88.3158 2.44875 88.0302 2.72916 87.641 3.13731C87.4079 3.41817 87.2259 3.64783 87.0965 3.77558C87.0186 3.8775 86.8887 4.03061 86.6809 4.20909C86.4995 4.41339 86.3696 4.56651 86.2659 4.66843C86.1365 4.79618 85.9545 5.02585 85.6689 5.3067C85.5915 5.40863 85.4616 5.56174 85.2538 5.76559C85.0981 5.99526 84.9424 6.19956 84.7609 6.35267L84.5536 6.55652C84.4495 6.68426 84.3717 6.78619 84.3459 6.81156C84.268 6.91393 84.1381 7.09242 83.9566 7.32209C83.7489 7.50057 83.5932 7.65368 83.4895 7.75605L82.7373 8.64892C82.711 8.67429 82.6332 8.72547 82.5295 8.80203C82.5037 8.87858 82.3996 8.98051 82.2702 9.10825C82.2444 9.13362 82.1923 9.21063 82.1145 9.31255C82.0366 9.41448 81.9846 9.49103 81.9588 9.51685L81.6732 9.79726L81.6216 9.84844C81.6216 9.84844 81.5953 9.82263 81.5695 9.74607V9.46566V8.75084V8.21539V8.01109C81.5695 6.88856 81.5953 5.99526 81.6216 5.35744C81.6216 5.07658 81.5953 4.82155 81.5695 4.6177C81.5437 4.28566 81.4138 3.90287 81.2065 3.41817C80.9987 3.03538 80.7389 2.67842 80.4017 2.37219C80.1944 2.19326 79.9609 2.0406 79.6753 1.88704H79.6232C79.5974 1.86167 79.5974 1.8363 79.5974 1.8363C79.4938 1.75974 79.4159 1.70856 79.3381 1.68319C79.2344 1.65737 78.9746 1.58081 78.5596 1.47889C78.5338 1.47889 78.4555 1.45352 78.326 1.42815C78.1961 1.40233 78.0925 1.37696 78.0667 1.37696C78.0404 1.37696 77.9888 1.40233 77.911 1.42815H77.8069C77.729 1.42815 77.4439 1.45351 76.951 1.53007C76.9247 1.53007 76.8211 1.55545 76.6912 1.632C76.5617 1.65737 76.4576 1.70856 76.4318 1.73437C76.354 1.75974 76.1983 1.86167 75.991 1.98941C75.9647 2.01478 75.8868 2.06596 75.7832 2.11715C75.7053 2.19326 75.6538 2.24445 75.5754 2.26982C75.3939 2.39756 75.1862 2.60142 74.9789 2.88227C74.901 2.98464 74.849 3.08657 74.7711 3.16313C74.6675 3.34161 74.5896 3.49472 74.5118 3.67364C74.5118 3.69902 74.4855 3.77557 74.4597 3.8775C74.3819 3.95406 74.3561 4.00524 74.3561 4.0818C74.2782 4.31147 74.2524 4.51532 74.2524 4.71962V5.2297V7.06705V7.55176C74.2782 7.8838 74.2782 8.06184 74.2524 8.06184V8.47043V9.10825V10.7413C74.2524 11.4815 74.2782 12.0169 74.304 12.3997V12.7825C74.2782 12.9868 74.2782 13.2165 74.304 13.4969L74.2524 13.9308C74.2524 14.2371 74.2782 14.3902 74.304 14.3902C74.304 14.5687 74.2782 14.8491 74.2524 15.2323V16.0232V17.0185V17.7324C74.2524 17.9879 74.2782 18.1922 74.304 18.3707C74.304 18.6003 74.2782 18.8042 74.2524 18.9831V20.4119V20.9224V21.3559V22.1727V22.3C74.2782 22.4023 74.304 22.4789 74.304 22.555C74.4339 22.9378 74.5638 23.2186 74.6675 23.4483C74.6933 23.5502 74.7453 23.6268 74.7711 23.6526C74.7969 23.7292 74.849 23.7799 74.8748 23.8057C75.0567 24.0861 75.3161 24.367 75.6796 24.6474C76.0946 24.9536 76.5097 25.1579 76.951 25.2598C77.2624 25.3622 77.5738 25.413 77.911 25.413C78.2482 25.413 78.5854 25.3622 78.871 25.2598C79.4159 25.1321 79.9346 24.8517 80.4538 24.4182C80.791 24.0096 80.9987 23.7033 81.1024 23.4995C81.2065 23.3464 81.336 23.0655 81.4659 22.6574C81.5437 22.3765 81.5695 22.0961 81.5695 21.8664V21.0243C81.5695 20.7435 81.5953 20.0037 81.5175 19.7229V16.2271V15.6405V15.3854V15.283C81.5437 15.283 81.5953 15.3089 81.6216 15.3342L81.6732 15.3854L82.1145 15.9721L82.5816 16.5845C82.7631 16.8142 82.893 16.9927 83.0224 17.1204C83.0224 17.1204 83.1523 17.2989 83.4375 17.6817L83.9046 18.2687L84.5016 19.0339C84.5274 19.0597 84.5794 19.1362 84.6573 19.2128L84.813 19.3655C84.8388 19.3913 85.1244 19.7741 85.6689 20.5142C85.8508 20.7435 86.1364 21.1009 86.5257 21.5602C86.6552 21.7645 86.8887 22.0703 87.2259 22.4531C87.4079 22.6827 87.693 23.0402 88.1085 23.4995L88.1601 23.5502C88.1601 23.5756 88.238 23.678 88.3937 23.8565L88.5494 24.0096C88.6793 24.2904 88.7829 24.4182 88.9124 24.4435C89.25 24.7498 89.6651 24.9794 90.1842 25.1579C90.2879 25.1833 90.5214 25.2598 90.8844 25.3622C91.3258 25.3622 91.6629 25.3364 91.8965 25.311C92.2337 25.2345 92.5972 25.1321 92.9606 25.0048L93.1679 24.9029C93.4535 24.6986 93.5572 24.6732 93.6871 24.5455C94.0243 24.2646 94.2058 24.0608 94.2836 23.9588C94.5692 23.4737 94.7249 23.1674 94.7507 23.0655C94.8028 22.9378 94.8544 22.7339 94.9322 22.4531C95.0105 22.0703 95.0105 21.611 94.9843 21.1262ZM64.3147 9.05707C64.2368 8.77666 64.1327 8.54699 64.0033 8.36806C63.6661 8.08765 63.3805 7.95991 63.1469 7.95991H62.9912C62.7577 7.93454 62.4205 7.90917 61.9792 7.90917H61.1749C60.8377 7.8838 60.5779 7.85798 60.4226 7.85798C60.3448 7.8838 60.3185 7.93454 60.3185 7.95991V8.11302V9.31255V10.1035V10.6389C60.3448 10.7159 60.3706 10.7413 60.3706 10.7413H60.9671H61.2785H61.694H62.3426H63.1469C63.1469 10.7667 63.1985 10.7925 63.3026 10.7925L63.4063 10.7413C63.7697 10.5628 64.0291 10.3331 64.159 10.1035C64.3405 9.77189 64.3925 9.41448 64.3147 9.05707ZM71.1647 21.1262C71.1905 21.3047 71.2167 21.5344 71.2167 21.8153C71.2167 22.1215 71.1389 22.4789 71.009 22.9124C70.9311 23.1167 70.8533 23.2952 70.7496 23.4483C70.6197 23.7292 70.4898 23.933 70.3861 24.0608C70.049 24.3923 69.7896 24.622 69.5818 24.7498L69.1405 25.056C68.7255 25.2345 68.4919 25.311 68.4661 25.311C68.1289 25.3876 67.8954 25.3876 67.7139 25.3622C67.5061 25.3622 67.2468 25.3364 66.9612 25.2598C66.5719 25.0814 66.1827 24.8517 65.7418 24.5455L65.5341 24.367C65.3005 24.1373 65.119 23.933 65.0154 23.8057C64.9633 23.7033 64.7039 23.2952 64.2626 22.6062C64.1327 22.3765 63.9775 22.1215 63.8213 21.8153C63.7955 21.7899 63.7439 21.6875 63.6661 21.5602C63.5878 21.4325 63.5362 21.3305 63.5099 21.3047C63.4841 21.2794 63.3284 21.0497 63.0949 20.6669C62.9654 20.4372 62.8355 20.208 62.7061 20.0291C62.6278 19.9272 62.5499 19.7741 62.4463 19.5698C62.3168 19.3913 62.2127 19.2635 62.1869 19.1616C61.9792 18.8812 61.7977 18.5492 61.642 18.2176C61.4342 17.9625 61.3048 17.7582 61.2265 17.6305C61.097 17.3501 60.9934 17.1711 60.9155 17.0692C60.8893 16.9927 60.8377 16.9161 60.7598 16.7884C60.682 16.6864 60.6562 16.6099 60.6299 16.5333C60.6041 16.5079 60.5521 16.406 60.5263 16.2783C60.4484 16.1763 60.4226 16.0998 60.4226 16.074L60.3185 15.9721C60.2927 15.9979 60.2407 16.0232 60.2149 16.0232V16.074C60.2407 16.3548 60.2665 16.6864 60.2665 17.1204V18.4726C60.2927 18.7535 60.3185 19.085 60.3185 19.519C60.2927 19.519 60.2665 19.5956 60.2665 19.7229L60.3185 19.9272V21.4583C60.3185 21.7387 60.2927 21.9426 60.2665 22.0703C60.2665 22.1727 60.2407 22.2488 60.2149 22.3C60.2149 22.3258 60.1891 22.3765 60.1628 22.4531C60.137 22.6316 60.0854 22.7339 60.0592 22.8105C59.9293 23.1933 59.774 23.5249 59.5921 23.8057C59.4105 24.0861 59.0733 24.3924 58.632 24.7498C58.5542 24.8263 58.4247 24.9029 58.2428 25.0048C58.0613 25.0814 57.9572 25.1321 57.8793 25.1579C57.8019 25.1579 57.6978 25.1833 57.5163 25.2598C57.3864 25.2857 57.3086 25.311 57.2307 25.311H56.712L56.0114 25.1579C55.8299 25.0814 55.6742 25.0048 55.4927 24.9029C55.3886 24.8771 55.1034 24.6986 54.6359 24.367C54.4544 24.1627 54.3245 23.9842 54.2208 23.8057C54.0914 23.6268 53.9873 23.4737 53.8836 23.3206C53.8057 23.1167 53.7537 22.9636 53.6758 22.8612C53.6758 22.7851 53.65 22.6827 53.5722 22.555C53.5464 22.4531 53.5206 22.3765 53.5206 22.3C53.5206 22.1727 53.4943 22.0961 53.4685 22.0196V21.4583V20.1315V19.7229V17.1711V16.6864V15.6405V15.2323V14.7983V14.3902V13.982V13.4969V13.395C53.4943 13.395 53.4943 13.2672 53.4685 13.038V12.7059V12.2466V11.6088V10.9963V7.55176V5.2297C53.4685 4.8981 53.4943 4.64306 53.5206 4.46413C53.598 4.03061 53.7021 3.64783 53.832 3.31624C53.9094 3.21386 53.9614 3.08657 54.0393 2.93346C54.1172 2.83108 54.2471 2.6526 54.4286 2.37219C54.6621 2.11715 54.9473 1.91285 55.2849 1.73437C55.5701 1.55544 55.9593 1.45352 56.4527 1.37696C56.6858 1.35159 56.9972 1.32578 57.3864 1.32578H57.5163H58.3464H58.5284C58.632 1.35159 58.7099 1.37696 58.7357 1.37696C58.9434 1.37696 59.0991 1.35159 59.2028 1.32578H59.3585C59.4363 1.35159 59.4884 1.37696 59.5142 1.37696C59.5142 1.35159 59.722 1.32578 60.1112 1.32578L60.7078 1.37696C60.7078 1.35159 60.7856 1.32578 60.9671 1.32578L61.2785 1.37696H62.1349H62.8355H63.9512C64.3405 1.37696 64.5998 1.40233 64.7813 1.42815C64.9113 1.5047 65.1969 1.53007 65.2747 1.53007C65.3005 1.53007 65.3783 1.55545 65.482 1.58082C65.664 1.60663 65.7676 1.65737 65.8455 1.68319C66.0012 1.70856 66.2347 1.81093 66.5461 1.93823C66.9354 2.06597 67.2205 2.19326 67.4025 2.32101C67.7397 2.49949 68.0248 2.6526 68.2326 2.83109C68.4141 3.01001 68.5698 3.11194 68.6739 3.16313L69.0369 3.52009C69.2188 3.74976 69.4519 4.05598 69.7375 4.41339C69.8154 4.48995 69.9453 4.69425 69.9453 4.77036C70.1268 5.00047 70.2567 5.2297 70.3604 5.45937C70.4898 5.86752 70.5681 6.09719 70.5939 6.17374C70.7234 6.55652 70.8275 6.86275 70.8533 7.06705C70.8795 7.16897 70.9053 7.29671 70.9053 7.44983C70.9832 7.65368 71.009 7.78143 71.009 7.85798C71.009 7.95991 71.0348 8.08765 71.061 8.21539C71.0868 8.39388 71.1126 8.52162 71.1126 8.59817V8.9044C71.1389 9.0317 71.1647 9.13362 71.1647 9.21062V10.0011C71.1389 10.0777 71.1126 10.18 71.1126 10.3073C71.0868 10.4351 71.061 10.537 71.061 10.5882L70.9053 11.5069C70.8795 11.5834 70.8275 11.66 70.8012 11.7877C70.7234 11.9662 70.6718 12.0681 70.646 12.1447C70.5681 12.4255 70.5161 12.604 70.4382 12.7059L70.2047 13.1907L69.8932 13.65C69.8932 13.6758 69.8674 13.7266 69.7896 13.7777C69.7117 13.8543 69.6855 13.905 69.6855 13.9308C69.556 14.1093 69.4003 14.2624 69.2446 14.4409L68.7775 14.8749C68.4399 15.1553 68.2068 15.3342 68.0769 15.4362C68.0511 15.5381 68.0248 15.6151 68.0248 15.6405C68.0511 15.717 68.1027 15.7678 68.1289 15.7936C68.2068 15.8701 68.2588 15.9721 68.3104 16.1252C68.4919 16.3548 68.596 16.5333 68.6739 16.6357C68.7513 16.763 68.8812 16.9419 69.0889 17.1711C69.2446 17.452 69.3483 17.6563 69.4261 17.7836C69.4519 17.8601 69.556 17.9367 69.6855 18.0644C69.7896 18.2429 69.8674 18.3449 69.8932 18.4214C70.1788 18.83 70.3604 19.1362 70.4898 19.3655C70.6197 19.4932 70.7754 19.7482 70.9053 20.1315C70.9832 20.2841 71.0348 20.4884 71.1126 20.7181C71.1126 20.9224 71.1389 21.0497 71.1647 21.1262ZM11.9619 17.0185C11.884 16.8395 11.8324 16.7122 11.7546 16.6357C11.5726 16.406 11.3653 16.2529 11.1576 16.2271H10.5347C10.2754 16.2017 9.91194 16.1764 9.47109 16.1764C9.28914 16.1505 9.00399 16.1252 8.61473 16.1252H7.75837H7.55107C7.52482 16.1505 7.47322 16.1764 7.44742 16.1764V16.3295V16.9419V17.6305V17.6817V18.2687L7.55107 18.3707H8.06977H8.51108C8.58893 18.396 8.69258 18.4214 8.82248 18.4214H9.13389H9.57474H9.73044H9.83454H10.0939H10.7946C10.9761 18.4472 11.1318 18.4214 11.3133 18.3195C11.6505 18.0386 11.8324 17.8094 11.9098 17.6305C11.9881 17.3501 11.9881 17.1458 11.9619 17.0185ZM7.44742 9.59296C7.47322 9.69489 7.49902 9.77189 7.49902 9.79726L7.60267 9.89919H7.96613H8.12183H8.61473H9.02978C9.31539 9.89919 9.54894 9.87381 9.67884 9.79726C9.88614 9.61877 10.016 9.51685 10.0939 9.46566L10.1975 9.41448C10.3012 9.18481 10.3532 8.95514 10.3532 8.75084C10.3274 8.52162 10.2233 8.34269 10.0939 8.21539L10.0418 8.16421C9.80829 7.95991 9.52314 7.85798 9.23754 7.85798H8.71883C8.51108 7.83261 8.35538 7.8068 8.27753 7.8068H8.01818H7.55107L7.49902 7.85798C7.47322 7.93454 7.44742 7.95991 7.44742 7.95991V8.80203V9.59296ZM19.3052 17.2223C19.331 17.4008 19.3572 17.5797 19.3572 17.7836V18.4726C19.2794 18.6003 19.2531 18.9066 19.2531 19.0339V19.2635C19.1753 19.4678 19.1495 19.6209 19.1495 19.7229C19.1495 19.7994 19.1232 19.876 19.0716 19.9779C19.0458 20.1056 19.0196 20.1822 19.0196 20.208C18.9422 20.3353 18.8381 20.6415 18.6566 21.0755C18.371 21.5602 18.1116 21.9684 17.8518 22.3C17.4368 22.7851 17.1254 23.1167 16.8918 23.3206C16.3989 23.6526 16.0617 23.8818 15.8281 24.0096C15.4389 24.2139 15.1017 24.367 14.7903 24.4943C14.0896 24.6986 13.5967 24.8263 13.3374 24.8517C12.9219 24.9282 12.6105 24.9536 12.3774 24.9536C11.8062 24.9536 11.3653 24.9282 11.0539 24.9029H9.83454C9.26334 24.9029 8.82248 24.8771 8.51108 24.8517H5.94201H5.37125H3.50328C3.32133 24.8517 3.16608 24.8263 2.98413 24.7498C2.43917 24.622 1.99832 24.3924 1.63487 24.1119C1.34926 23.8818 1.16776 23.7034 1.06411 23.6014C0.934208 23.4229 0.804759 23.2698 0.674857 23.1167C0.649058 23.0143 0.571206 22.887 0.467104 22.7086C0.337654 22.4277 0.234005 22.2488 0.207754 22.1215C0.207754 22.0449 0.181952 21.9426 0.104101 21.7645C0.077849 21.5856 0.0520523 21.4837 0.0520523 21.4071C0.0520523 21.3305 0.026252 21.2028 0 21.0243V20.6669V20.6162V20.4119C0.026252 20.2841 0.0520523 20.1822 0.0520523 20.1568V19.7229V19.1616V18.3707V17.3754V16.1252V14.7472V14.084V13.0887C0.0778518 13.0887 0.104101 12.961 0.104101 12.7318L0.0520523 12.349V11.1495V9.89919V8.4958V8.26613C0.0778518 8.13883 0.104101 8.03646 0.104101 7.95991V7.55176C0.077849 7.39865 0.0520523 7.29672 0.0520523 7.22016V6.17374V5.61248V4.77036C0.0520523 4.54069 0.077849 4.36221 0.104101 4.26029C0.1299 4.18373 0.181954 4.05598 0.207754 3.8775C0.285604 3.67365 0.337655 3.52009 0.363455 3.41817C0.597007 3.03538 0.726457 2.80571 0.80476 2.72915C0.986261 2.49949 1.24561 2.21908 1.63487 1.93823C1.73852 1.8363 1.84262 1.75974 1.97207 1.73437C2.17982 1.60663 2.41338 1.5047 2.64693 1.42815C2.72478 1.40233 2.80263 1.37696 2.93253 1.37696C3.03618 1.30041 3.11403 1.27458 3.19188 1.27458H3.50328C3.63273 1.24921 3.73684 1.22385 3.81469 1.22385C4.04779 1.24922 4.35919 1.27458 4.7747 1.27458C5.2418 1.27458 5.6048 1.30041 5.83835 1.32578H6.48741H6.85042H7.16182H7.75837C7.93987 1.35159 8.12183 1.37696 8.30333 1.37696H9.57474H9.88614C10.016 1.37696 10.1975 1.40233 10.4053 1.42815C10.5868 1.45352 10.7425 1.47889 10.8462 1.47889C10.924 1.47889 11.0019 1.50471 11.106 1.58082C11.2354 1.60663 11.3395 1.632 11.3653 1.632C11.6505 1.70856 11.884 1.75974 12.066 1.8363C12.2475 1.86167 12.481 1.96359 12.7666 2.09134C13.1817 2.26982 13.4668 2.42293 13.6488 2.52486C13.9081 2.6526 14.0896 2.75497 14.1933 2.83109C14.401 2.95883 14.6088 3.11194 14.8423 3.26505C14.9202 3.34161 15.0238 3.44353 15.2053 3.57127L15.5167 3.8775L16.0617 4.56651C16.0875 4.64307 16.2174 4.79617 16.4252 5.07658C16.6067 5.33207 16.7366 5.58711 16.8402 5.86752C16.8918 6.07182 16.9959 6.35267 17.1254 6.70964C17.2032 6.91394 17.2295 7.09242 17.2295 7.22016C17.2295 7.24553 17.2553 7.32208 17.2815 7.44983C17.3073 7.55175 17.3331 7.62831 17.3331 7.65368V8.06184C17.3594 8.26614 17.3852 8.41925 17.3852 8.4958C17.3852 8.82784 17.3594 9.08289 17.3331 9.26137C17.3331 9.54222 17.2815 9.84845 17.1774 10.1547C17.1516 10.2308 17.0996 10.3585 17.0738 10.5628C16.9959 10.7413 16.9701 10.869 16.9701 10.9452C16.9439 11.0222 16.9181 11.0729 16.8918 11.1495C16.866 11.2772 16.7624 11.4557 16.6325 11.6854C16.5026 11.9662 16.3731 12.1447 16.2695 12.2466L16.2174 12.2978V12.349C16.2174 12.4763 16.2432 12.5782 16.3215 12.604C16.7624 12.9356 16.9701 13.0887 16.9701 13.0887C17.2553 13.293 17.4368 13.4461 17.5409 13.5481C17.6187 13.6246 17.6708 13.7012 17.7482 13.7777L18.008 14.0328C18.1374 14.2113 18.2415 14.3648 18.3452 14.5433C18.5267 14.8237 18.6824 15.1553 18.8639 15.4873L19.1495 16.2271C19.1495 16.3041 19.1753 16.406 19.2015 16.5845C19.2794 16.8654 19.3052 17.0946 19.3052 17.2223ZM47.9909 11.4143C46.4787 10.5148 44.207 11.4156 42.9166 13.427C41.6266 15.4379 41.8063 17.7978 43.3185 18.6974C44.8303 19.5974 47.102 18.6965 48.3924 16.6851C49.6828 14.6737 49.5027 12.3143 47.9909 11.4143ZM39.5844 15.7905C39.1816 14.862 38.7878 13.9291 38.394 13.0006C38.1021 12.3214 37.6743 11.704 37.1357 11.1828C36.2658 10.4061 34.9858 10.2321 33.9266 10.7471C33.2536 11.0849 32.6417 11.5269 32.1162 12.0548C30.618 13.4061 28.9885 14.5393 26.9472 15.0147C24.9059 15.4896 23.8106 17.3728 23.7789 19.0334C23.7114 20.4858 24.4714 21.8575 25.7614 22.6124C26.505 23.1034 27.3519 23.431 28.2417 23.5716C30.8457 23.9918 33.4079 24.6247 35.9001 25.4632L37.4888 25.956C37.9414 25.9778 38.2627 26.0036 38.5932 25.9996C38.9159 25.9978 39.2381 25.9747 39.5572 25.9297C41.2885 25.7365 42.6314 24.3826 42.7527 22.7081C42.8636 21.5549 42.5427 20.4016 41.8475 19.4567C40.9563 18.3177 40.1972 17.0884 39.5844 15.7905ZM39.8035 10.9563C41.5402 11.773 43.8974 10.5624 45.0688 8.25189C46.2406 5.94141 45.7826 3.40659 44.0463 2.58985C42.3101 1.7731 39.9528 2.9842 38.7815 5.29424C37.6096 7.60472 38.0672 10.1395 39.8035 10.9563ZM32.4086 9.2943C34.3358 9.42383 36.0494 7.44983 36.2359 4.8852C36.4219 2.32012 35.0102 0.135589 33.0825 0.00606667C31.1552 -0.123901 29.4416 1.85009 29.2551 4.41517C29.0691 6.97981 30.4808 9.16434 32.4086 9.2943ZM25.3558 14.3123C23.5793 14.3653 22.0775 12.4927 22.0014 10.1293C21.9259 7.76629 23.3045 5.80788 25.0811 5.75536C26.8576 5.70239 28.359 7.5749 28.435 9.93791C28.5106 12.3009 27.1319 14.2593 25.3558 14.3123Z" fill="black"/>
</g>
<defs>
<clipPath id="clip0_39_85">
<rect width="95" height="26" fill="white"/>
</clipPath>
</defs>
</svg>
