<svg width="23" height="26" viewBox="0 0 23 26" fill="none" xmlns="http://www.w3.org/2000/svg">
<path d="M21.4216 4.93074H1.57843C0.706688 4.93074 0 5.57463 0 6.36891V24.4487C0 25.243 0.706688 25.8869 1.57843 25.8869H21.4216C22.2933 25.8869 23 25.243 23 24.4487V6.36891C23 5.57463 22.2933 4.93074 21.4216 4.93074ZM1.57843 6.16346H21.4216C21.5461 6.16346 21.6471 6.25544 21.6471 6.36891V24.4487C21.6471 24.5622 21.5461 24.6542 21.4216 24.6542H1.57843C1.4539 24.6542 1.35294 24.5622 1.35294 24.4487V6.36891C1.35294 6.25544 1.4539 6.16346 1.57843 6.16346Z" fill="black"/>
<path d="M11.4999 0C14.7908 0 17.4719 2.37901 17.5845 5.35247L17.5882 5.54721H16.2352C16.2352 3.16438 14.1151 1.23271 11.4999 1.23271C8.95007 1.23271 6.87094 3.069 6.76857 5.36937L6.76462 5.54721H5.41168C5.41168 2.48357 8.13748 0 11.4999 0Z" fill="black"/>
</svg>
